<?xml version="1.0" encoding="utf-8"?>
<!-- Uploaded to: SVG Repo, www.svgrepo.com, Generator: SVG Repo Mixer Tools -->
<svg width="800px" height="800px" viewBox="0 0 1024 1024" class="icon"  version="1.1" xmlns="http://www.w3.org/2000/svg"><path d="M512 512m-512 0a512 512 0 1 0 1024 0 512 512 0 1 0-1024 0Z" fill="#DAE2E5" /><path d="M512 192c-176.704 0-320 143.296-320 320s143.296 320 320 320 320-143.296 320-320-143.264-320-320-320z m0 608c-159.072 0-288-128.928-288-288s128.928-288 288-288 288 128.928 288 288-128.928 288-288 288z" fill="#FFFFFF" /><path d="M589.248 240.48l-90.496 90.496a64 64 0 0 0 0 90.528L589.248 512a64 64 0 0 0 90.496 0l90.528-90.496c24.96-24.992 24.96-65.536 0-90.528L679.744 240.48a63.936 63.936 0 0 0-90.496 0z m158.4 113.12a32 32 0 0 1 0 45.28l-90.528 90.496a31.968 31.968 0 0 1-45.248 0l-90.496-90.496a32 32 0 0 1 0-45.28l90.496-90.496a31.968 31.968 0 0 1 45.248 0l90.528 90.496z" fill="#434854" /><path d="M747.648 353.6a32 32 0 0 1 0 45.28l-90.528 90.496a31.968 31.968 0 0 1-45.248 0l-90.496-90.496a32 32 0 0 1 0-45.28l90.496-90.496a31.968 31.968 0 0 1 45.248 0l90.528 90.496z" fill="#FFFFFF" /><path d="M634.496 376.224m-64 0a64 64 0 1 0 128 0 64 64 0 1 0-128 0Z" fill="#EF4D4D" /><path d="M770.272 421.504L679.744 512a64 64 0 0 1-90.496 0l-90.496-90.496a64 64 0 0 1-14.496-22.624 63.84 63.84 0 0 0 14.496 67.872l90.496 90.496a64 64 0 0 0 90.496 0l90.528-90.496a64 64 0 0 0 14.496-67.872c-3.104 8.224-7.872 16-14.496 22.624z" fill="" /><path d="M498.752 557.248l-90.496 90.496a64 64 0 0 0 0 90.528l90.496 90.496a64 64 0 0 0 90.496 0l90.496-90.496a64 64 0 0 0 0-90.528l-90.496-90.496a64 64 0 0 0-90.496 0z m158.368 113.152a31.904 31.904 0 0 1 0 45.248l-90.496 90.496a31.968 31.968 0 0 1-45.248 0l-90.496-90.496a31.904 31.904 0 0 1 0-45.248l90.496-90.528a31.968 31.968 0 0 1 45.248 0l90.496 90.528z" fill="#434854" /><path d="M657.12 670.4a31.904 31.904 0 0 1 0 45.248l-90.496 90.496a31.968 31.968 0 0 1-45.248 0l-90.496-90.496a31.904 31.904 0 0 1 0-45.248l90.496-90.528a31.968 31.968 0 0 1 45.248 0l90.496 90.528z" fill="#FFFFFF" /><path d="M544 693.024m-64 0a64 64 0 1 0 128 0 64 64 0 1 0-128 0Z" fill="#EF4D4D" /><path d="M679.744 738.272l-90.496 90.496a64 64 0 0 1-90.496 0l-90.496-90.496a63.168 63.168 0 0 1-14.496-22.624 63.84 63.84 0 0 0 14.496 67.872l90.496 90.496a64 64 0 0 0 90.496 0l90.496-90.496a63.84 63.84 0 0 0 14.496-67.872 62.72 62.72 0 0 1-14.496 22.624z" fill="" /><path d="M295.104 353.6l-90.496 90.528a64 64 0 0 0 0 90.496l90.496 90.496a64 64 0 0 0 90.496 0l90.528-90.496a64 64 0 0 0 0-90.496l-90.528-90.528a64.032 64.032 0 0 0-90.496 0z m158.4 113.152a31.968 31.968 0 0 1 0 45.248l-90.528 90.496a31.904 31.904 0 0 1-45.248 0L227.232 512a31.968 31.968 0 0 1 0-45.248l90.496-90.496a31.904 31.904 0 0 1 45.248 0l90.528 90.496z" fill="#434854" /><path d="M453.504 466.752a31.968 31.968 0 0 1 0 45.248l-90.528 90.496a31.904 31.904 0 0 1-45.248 0L227.232 512a31.968 31.968 0 0 1 0-45.248l90.496-90.496a31.904 31.904 0 0 1 45.248 0l90.528 90.496z" fill="#FFFFFF" /><path d="M340.352 489.376m-64 0a64 64 0 1 0 128 0 64 64 0 1 0-128 0Z" fill="#EF4D4D" /><path d="M476.128 534.624l-90.528 90.496a64 64 0 0 1-90.496 0l-90.496-90.496A63.84 63.84 0 0 1 190.08 512a63.84 63.84 0 0 0 14.496 67.872L295.104 670.4c24.992 24.96 65.536 24.96 90.496 0l90.528-90.528A63.936 63.936 0 0 0 490.624 512c-3.136 8.256-7.872 16-14.496 22.624z" fill="" /></svg>