<?xml version="1.0" encoding="utf-8"?>

<!DOCTYPE svg PUBLIC "-//W3C//DTD SVG 1.1//EN" "http://www.w3.org/Graphics/SVG/1.1/DTD/svg11.dtd">
<!-- Uploaded to: SVG Repo, www.svgrepo.com, Generator: SVG Repo Mixer Tools -->
<svg version="1.1" id="Layer_1" xmlns="http://www.w3.org/2000/svg" xmlns:xlink="http://www.w3.org/1999/xlink" 
	 width="800px" height="8*::before,
*::after {
  box-sizing: border-box;
}
* {
  margin: 0;
}

body {
  line-height: 1.5;
  color: white;
  background-color: #0f172a;
  position: relative;
}

img,
picture,
video,
canvas,
svg {
  display: block;
  max-width: 100%;
}
img {
  width: 200px;
  height: 200px;
}

nav {
  overflow: hidden;
  display: flex;
  gap: 20px;
  justify-content: center;
  margin: 60px 20px 30px 0px;
}

nav button.active {
}

button {
  font-size: 1.4rem;
  border: none;
  background: none;
  color: #f1f5f9;
}

button::after {
  display: block;
  content: '';
  border-bottom: solid 3px #f8fafc;
  transform: scaleX(0);
  transition: transform 250ms ease-in-out;
}

button:hover::after {
  transform: scaleX(1.0);

}

button:hover{
  cursor: pointer;
}

#content {
  display: flex;
  flex-direction: column;
  justify-content: center;
  align-items: center;
}

#logo {
  position: absolute;
  margin-right: 400px;
  fill: #f43f5e;
  width: 100px;
  height: 100px;

}

00px" viewBox="0 0 64 64" enable-background="new 0 0 64 64" xml:space="preserve">
<path fill="none" stroke="#000000" stroke-width="2" stroke-miterlimit="10" d="M24.957,15.001C22.646,11.392,18.604,9,14,9
	c-0.826,0-1.631,0.085-2.414,0.233c0.891,1.396,1.414,3.05,1.414,4.83c0,4.971-4.029,9-9,9c-1.046,0-2.046-0.188-2.98-0.516
	c0.099,2.368,0.822,4.576,2.023,6.452c1.018,1.59,2.371,2.943,3.961,3.96"/>
<path fill="none" stroke="#000000" stroke-width="2" stroke-miterlimit="10" d="M56,45c4.19,0,7-2.81,7-7c0-4.189-2.81-9-7-9
	c0-10.475-9.525-18-20-18c-9.271,0-17.348,6.211-19,15c0,0-1.232,0-2,0c-5.238,0-9,4.762-9,10s3.762,9,9,9"/>
<path fill="none" stroke="#000000" stroke-width="2" stroke-miterlimit="10" d="M27,58c0,2.761,2.238,5,5,5s5-2.239,5-5
	s-2.238-5-5-5H2"/>
<path fill="none" stroke="#000000" stroke-width="2" stroke-miterlimit="10" d="M40,44c0-2.761,2.238-5,5-5s5,2.239,5,5
	s-2.238,5-5,5H4"/>
</svg>