<?xml version="1.0" encoding="UTF-8"?>
<svg width="1200pt" height="1200pt" version="1.1" viewBox="0 0 1200 1200" xmlns="http://www.w3.org/2000/svg">
 <g>
  <path d="m624 541.2c-4.8008 0-8.3984-1.1992-12-3.6016-16.801-1.1992-40.801-3.6016-68.398-7.1992-88.801-10.801-222-27.602-354-4.8008-13.199 2.3984-25.199-7.1992-27.602-19.199-2.3984-13.199 7.1992-25.199 19.199-27.602 138-22.801 276-6 367.2 4.8008 32.398 3.6016 57.602 7.1992 72 7.1992 3.6016 0 7.1992 1.1992 10.801 2.3984 26.398-3.6016 45.602-26.398 45.602-54 0-30-24-54-54-54-19.199 0-36 9.6016-45.602 25.199-7.1992 10.801-21.602 14.398-33.602 7.1992-10.801-7.1992-14.398-21.602-7.1992-33.602 19.199-30 51.602-48 86.398-48 56.398 0 102 45.602 102 102 0.003906 56.406-44.398 103.21-100.8 103.21z"/>
  <path d="m558 781.2c-28.801 0-55.199 14.398-70.801 39.602-7.1992 10.801-3.6016 26.398 7.1992 33.602 10.801 7.1992 26.398 3.6016 33.602-7.1992 7.1992-10.801 18-16.801 30-16.801 20.398 0 36 15.602 36 36 0 20.398-15.602 36-36 36h-1.1992-1.1992c-12 0-33.602-3.6016-60-8.3984-76.801-15.605-207.6-39.605-327.6-4.8047-13.199 3.6016-20.398 16.801-16.801 30 3.6016 13.199 16.801 20.398 30 16.801 109.2-31.199 228-9.6016 306 4.8008 30 6 52.801 9.6016 68.398 9.6016h1.1992 1.1992c46.801 0 84-37.199 84-84 0.003906-46.801-37.195-85.203-83.996-85.203z"/>
  <path d="m972 435.6c-56.398 0-106.8 28.801-136.8 75.602-7.1992 10.801-3.6016 26.398 7.1992 33.602 10.801 7.1992 26.398 3.6016 33.602-7.1992 21.602-33.602 57.602-52.801 96-52.801 62.398 0 114 51.602 114 114 0 62.398-51.602 114-114 114h-2.3984-2.3984c-28.801 0-79.199-9.6016-142.8-20.398-176.4-33.605-472.8-87.605-741.6-8.4062-13.199 3.6016-20.398 16.801-16.801 30 3.6016 13.199 16.801 20.398 30 16.801 258-75.602 535.2-24 720 9.6016 66 12 117.6 21.602 151.2 21.602h2.3984 2.3984c90 0 162-73.199 162-162 0.003906-88.805-73.195-164.4-162-164.4z"/>
  <path d="m987.6 308.4c-10.801-25.199-24-46.801-37.199-66 16.801-27.602 14.398-66-6-103.2-22.801-42-75.602-86.398-154.8-86.398-63.602 0-129.6 28.801-198 85.199-8.3984 7.1992-10.801 20.398-6 30 6 9.6016 18 14.398 28.801 10.801 0 0 9.6016-3.6016 24-3.6016 28.801 0 69.602 12 100.8 70.801 20.398 38.398 54 60 93.602 60 30 0 60-12 81.602-27.602 9.6016 14.398 18 30 26.398 49.199 3.6016 9.6016 13.199 14.398 21.602 14.398 3.6016 0 6-1.1992 9.6016-2.3984 15.594-5.9961 21.594-19.199 15.594-31.199zm-152.4-50.398c-22.801 0-39.602-10.801-51.602-34.801-30-56.398-69.602-80.398-102-90 38.398-21.602 75.602-33.602 109.2-33.602 57.602 0 96 32.398 112.8 62.398 7.1992 12 10.801 25.199 10.801 36-43.199-40.801-82.801-51.602-85.199-52.801-13.199-3.6016-26.398 3.6016-30 16.801-3.6016 13.199 3.6016 26.398 16.801 30 0 0 34.801 9.6016 70.801 46.801-14.402 10.805-32.402 19.203-51.602 19.203z"/>
  <path d="m1042.8 1017.6c-4.8008-8.3984-14.398-14.398-24-13.199-14.398 1.1992-31.199-1.1992-45.602-3.6016 39.602-92.398-12-172.8-14.398-176.4-6-8.3984-16.801-13.199-27.602-9.6016-10.801 3.6016-16.801 13.199-16.801 24 0 18-25.199 45.602-50.398 67.199-20.398-45.602-67.199-61.199-69.602-62.398-8.3984-2.3984-18-1.1992-24 4.8008s-9.6016 15.602-7.1992 24c7.1992 25.199-7.1992 48-21.602 72-6 9.6016-10.801 19.199-15.602 28.801-14.398 32.398-10.801 68.398 9.6016 102-19.199 3.6016-42 2.3984-66-3.6016-13.199-3.6016-26.398 3.6016-30 16.801-3.6016 13.199 3.6016 26.398 16.801 30 19.199 6 38.398 8.3984 55.199 8.3984 20.398 0 40.801-3.6016 57.602-9.6016 24 21.602 51.602 32.398 82.801 32.398 92.398 0 182.4-98.398 186-102 7.1992-9.5977 8.3984-20.398 4.8008-29.996zm-189.6 81.598c-12 0-22.801-2.3984-32.398-7.1992 22.801-15.602 40.801-32.398 51.602-46.801 7.1992-10.801 4.8008-25.199-6-33.602-10.801-7.1992-25.199-4.8008-33.602 6 0 0-18 24-49.199 40.801-12-16.801-22.801-40.801-12-66 3.6016-7.1992 7.1992-14.398 13.199-22.801 9.6016-15.602 21.602-36 26.398-58.801 8.3984 8.3984 14.398 21.602 15.602 37.199 0 8.3984 6 15.602 13.199 20.398 7.1992 3.6016 16.801 3.6016 24-1.1992 10.801-7.1992 49.199-33.602 74.398-66 6 27.602 4.8008 66-19.199 103.2-3.6016 6-4.8008 14.398-2.3984 20.398 2.3984 7.1992 8.3984 12 14.398 14.398 1.1992 0 15.602 4.8008 34.801 9.6016-31.199 24.008-73.199 50.406-112.8 50.406z"/>
 </g>
</svg>
